<svg aria-hidden="true" style="position: absolute; width: 0; height: 0; overflow: hidden;" version="1.1" xmlns="http://www.w3.org/2000/svg" xmlns:xlink="http://www.w3.org/1999/xlink">
<defs>
<symbol id="icon-rivo-white" viewBox="0 0 97 32">
<path fill="#fff" style="fill: var(--color1, #fff)" d="M15.453 15.621v9.853l0.084 1.937c0.084 0.898 0.309 1.544 0.674 1.937s0.982 0.646 1.853 0.758l2.147 0.168v0.674h-20.211v-0.674h1.305c0.618-0.084 1.207-0.154 1.768-0.211 0.561-0.084 0.997-0.295 1.305-0.632 0.337-0.365 0.547-0.996 0.632-1.895l0.084-1.937v-19.958l-0.084-1.937c-0.084-0.898-0.295-1.53-0.632-1.895s-0.814-0.589-1.432-0.674c-0.618-0.084-1.151-0.126-1.6-0.126-0.449-0.028-0.87-0.056-1.263-0.084v-0.674l18.821-0.042c2.611 0 4.73 0.112 6.358 0.337s2.947 0.674 3.958 1.347c1.039 0.674 1.853 1.516 2.442 2.526 0.618 0.982 0.926 2.133 0.926 3.453 0 0.982-0.182 1.965-0.547 2.947-0.337 0.982-0.87 1.825-1.6 2.526s-1.642 1.249-2.737 1.642c-1.067 0.393-2.779 0.589-5.137 0.589v0.295c1.432 0.309 2.625 0.604 3.579 0.884 0.982 0.281 1.867 0.688 2.653 1.221s1.488 1.333 2.105 2.4c0.646 1.039 1.165 2.189 1.558 3.453 0.393 1.235 0.744 2.119 1.053 2.653 0.309 0.505 0.744 0.758 1.305 0.758 0.73 0 1.207-0.463 1.432-1.389 0.253-0.954 0.379-2.035 0.379-3.242h0.674c0 1.375-0.084 2.47-0.253 3.284s-0.589 1.67-1.263 2.568c-0.674 0.87-1.642 1.586-2.905 2.147-1.235 0.533-2.582 0.8-4.042 0.8-2.274 0-4.098-0.646-5.474-1.937-1.347-1.319-2.189-3.032-2.526-5.137-0.309-2.133-0.561-3.93-0.758-5.389-0.309-1.628-0.716-2.568-1.221-2.821-0.505-0.281-1.053-0.435-1.642-0.463s-1.179-0.042-1.768-0.042zM18.821 14.737c1.067-0.168 1.867-0.94 2.4-2.316 0.561-1.375 0.842-2.905 0.842-4.589 0-1.375-0.281-2.723-0.842-4.042-0.561-1.347-1.235-2.133-2.021-2.358s-1.488-0.351-2.105-0.379c-0.618-0.028-1.165-0.056-1.642-0.084v13.895h1.432c0.786 0 1.432-0.042 1.937-0.126zM51.373 30.947h-13.642v-0.674l1.011-0.042c0.814-0.084 1.305-0.281 1.474-0.589s0.253-0.982 0.253-2.021l0.042-1.937v-10.063l-0.042-1.726c-0.056-0.674-0.14-1.179-0.253-1.516s-0.618-0.547-1.516-0.632l-1.137-0.084v-0.674h11.032v14.695l0.042 1.937c0 1.011 0.084 1.684 0.253 2.021 0.168 0.309 0.66 0.505 1.474 0.589l1.011 0.042v0.674zM40.426 3.958c0-1.095 0.393-2.021 1.179-2.779 0.814-0.786 1.782-1.179 2.905-1.179 1.151 0 2.119 0.379 2.905 1.137 0.814 0.73 1.221 1.67 1.221 2.821 0 1.123-0.407 2.077-1.221 2.863-0.786 0.758-1.754 1.137-2.905 1.137-1.123 0-2.091-0.379-2.905-1.137-0.786-0.786-1.179-1.74-1.179-2.863zM64.84 11.663c-0.168 0-0.337 0.014-0.505 0.042-0.168 0-0.477 0.042-0.926 0.126-0.421 0.056-0.632 0.379-0.632 0.968 0 0.309 0.028 0.575 0.084 0.8s0.154 0.505 0.295 0.842l3.2 8.505 2.989-7.747c0.337-0.982 0.505-1.754 0.505-2.316 0-0.393-0.098-0.66-0.295-0.8s-0.505-0.253-0.926-0.337l-1.347-0.084v-0.674h7.032v0.674l-1.558 0.168c-0.449 0.084-0.856 0.351-1.221 0.8-0.365 0.421-0.744 1.137-1.137 2.147-0.393 0.982-1.165 2.947-2.316 5.895-1.123 2.947-1.979 5.193-2.568 6.737s-1.053 2.779-1.389 3.705h-2.989c-0.477-1.207-1.067-2.723-1.768-4.547-0.702-1.853-1.586-4.14-2.653-6.863-1.067-2.751-1.796-4.604-2.189-5.558s-0.688-1.558-0.884-1.811c-0.168-0.281-0.435-0.449-0.8-0.505-0.365-0.084-0.702-0.126-1.011-0.126-0.309-0.028-0.533-0.042-0.674-0.042v-0.674h13.684v0.674zM96.33 20.968c0 2.975-1.137 5.46-3.411 7.453-2.246 1.965-4.899 2.947-7.958 2.947-3.228 0-5.937-0.982-8.126-2.947-2.161-1.993-3.242-4.477-3.242-7.453s1.095-5.446 3.284-7.411c2.218-1.993 4.912-2.989 8.084-2.989 3.116 0 5.782 0.982 8 2.947 2.245 1.965 3.368 4.449 3.368 7.453zM87.951 20.926c0-0.393-0.029-1.179-0.084-2.358s-0.084-1.881-0.084-2.105c0-1.516-0.239-2.765-0.716-3.747-0.45-0.982-1.165-1.474-2.147-1.474-0.898 0-1.586 0.519-2.063 1.558-0.477 1.011-0.716 2.232-0.716 3.663 0 0.533-0.028 1.193-0.084 1.979-0.028 0.758-0.056 1.586-0.084 2.484 0 0.393 0.028 1.207 0.084 2.442 0.056 1.207 0.084 1.909 0.084 2.105 0 1.516 0.225 2.765 0.674 3.747 0.477 0.982 1.193 1.474 2.148 1.474 0.926 0 1.628-0.505 2.105-1.516s0.716-2.246 0.716-3.705c0-0.561 0.013-1.221 0.042-1.979 0.028-0.786 0.070-1.642 0.126-2.568z"></path>
</symbol>
<symbol id="icon-instagram" viewBox="0 0 32 32">
<path fill="#c2efd4" style="fill: var(--color2, #c2efd4)" d="M10.24 1.92c-4.587 0-8.32 3.733-8.32 8.32v11.52c0 4.587 3.733 8.32 8.32 8.32h11.52c4.587 0 8.32-3.733 8.32-8.32v-11.52c0-4.587-3.733-8.32-8.32-8.32h-11.52zM10.24 3.2h11.52c3.895 0 7.040 3.145 7.040 7.040v11.52c0 3.895-3.145 7.040-7.040 7.040h-11.52c-3.895 0-7.040-3.145-7.040-7.040v-11.52c0-3.895 3.145-7.040 7.040-7.040zM23.68 7.040c-0.707 0-1.28 0.573-1.28 1.28s0.573 1.28 1.28 1.28c0.707 0 1.28-0.573 1.28-1.28s-0.573-1.28-1.28-1.28zM16 8.96c-3.88 0-7.040 3.159-7.040 7.040s3.159 7.040 7.040 7.040c3.881 0 7.040-3.16 7.040-7.040s-3.16-7.040-7.040-7.040zM16 10.24c3.189 0 5.76 2.571 5.76 5.76s-2.571 5.76-5.76 5.76c-3.189 0-5.76-2.571-5.76-5.76s2.571-5.76 5.76-5.76z"></path>
</symbol>
<symbol id="icon-twitter" viewBox="0 0 32 32">
<path fill="#c2efd4" style="fill: var(--color2, #c2efd4)" d="M21.9 3.5c-3.827 0-6.94 3.112-6.94 6.94 0 0.23 0.057 0.455 0.080 0.68-4.732-0.452-8.917-2.732-11.76-6.22-0.132-0.168-0.337-0.258-0.553-0.242-0.212 0.015-0.402 0.138-0.507 0.322-0.598 1.027-0.94 2.21-0.94 3.48 0 1.538 0.55 2.945 1.4 4.1-0.165-0.072-0.345-0.112-0.5-0.2-0.198-0.105-0.435-0.1-0.627 0.015s-0.31 0.322-0.313 0.545v0.080c0 2.357 1.22 4.405 3.020 5.66-0.020-0.003-0.040 0.005-0.060 0-0.22-0.038-0.442 0.040-0.59 0.207s-0.195 0.4-0.13 0.613c0.715 2.222 2.54 3.92 4.8 4.54-1.8 1.070-3.888 1.7-6.14 1.7-0.488 0-0.955-0.025-1.42-0.080-0.3-0.040-0.588 0.135-0.688 0.42-0.102 0.285 0.010 0.602 0.268 0.76 2.888 1.852 6.315 2.94 10 2.94 5.972 0 10.657-2.495 13.8-6.060s4.78-8.195 4.78-12.52c0-0.182-0.015-0.36-0.020-0.54 1.172-0.897 2.22-1.95 3.040-3.18 0.162-0.237 0.145-0.555-0.043-0.775-0.185-0.22-0.498-0.287-0.758-0.165-0.33 0.147-0.715 0.162-1.060 0.28 0.455-0.607 0.845-1.263 1.080-2 0.080-0.253-0.008-0.53-0.215-0.695-0.208-0.163-0.498-0.183-0.725-0.045-1.092 0.647-2.303 1.103-3.58 1.38-1.24-1.16-2.872-1.94-4.7-1.94zM21.9 4.78c1.633 0 3.108 0.697 4.14 1.8 0.155 0.16 0.382 0.228 0.6 0.18 0.835-0.165 1.628-0.407 2.4-0.72-0.445 0.6-0.995 1.112-1.64 1.5-0.292 0.143-0.43 0.48-0.323 0.788 0.105 0.305 0.425 0.482 0.743 0.412 0.64-0.078 1.21-0.338 1.82-0.5-0.548 0.592-1.148 1.127-1.8 1.6-0.177 0.13-0.275 0.34-0.26 0.56 0.010 0.26 0.020 0.518 0.020 0.78 0 4-1.535 8.343-4.46 11.66s-7.22 5.64-12.84 5.64c-2.552 0-4.962-0.565-7.14-1.56 2.7-0.208 5.19-1.163 7.2-2.74 0.21-0.168 0.292-0.448 0.207-0.703s-0.32-0.43-0.588-0.438c-2.11-0.038-3.877-1.265-4.82-3 0.035 0 0.065 0 0.1 0 0.633 0 1.258-0.080 1.84-0.24 0.28-0.083 0.473-0.343 0.463-0.635s-0.218-0.542-0.503-0.605c-2.277-0.46-3.985-2.315-4.38-4.62 0.645 0.222 1.305 0.397 2.020 0.42 0.293 0.017 0.558-0.165 0.647-0.443s-0.020-0.582-0.268-0.738c-1.52-1.018-2.52-2.75-2.52-4.72 0-0.73 0.19-1.4 0.44-2.040 3.2 3.513 7.68 5.845 12.74 6.1 0.2 0.010 0.395-0.072 0.525-0.225 0.13-0.155 0.18-0.36 0.135-0.555-0.097-0.415-0.16-0.855-0.16-1.3 0-3.135 2.525-5.66 5.66-5.66z"></path>
</symbol>
<symbol id="icon-Facebook" viewBox="0 0 32 32">
<path fill="#c2efd4" style="fill: var(--color2, #c2efd4)" d="M5.76 2.56c-1.76 0-3.2 1.44-3.2 3.2v20.48c0 1.76 1.44 3.2 3.2 3.2h10.772c0.069 0.011 0.14 0.011 0.209 0h3.631c0.069 0.011 0.14 0.011 0.209 0h5.659c1.76 0 3.2-1.44 3.2-3.2v-20.48c0-1.76-1.44-3.2-3.2-3.2h-20.48zM5.76 3.84h20.48c1.068 0 1.92 0.852 1.92 1.92v20.48c0 1.068-0.852 1.92-1.92 1.92h-5.12v-8.96h2.445l0.896-4.48h-3.341v-1.28c0-0.357 0.034-0.385 0.154-0.462s0.49-0.178 1.126-0.178h1.92v-3.604l-0.365-0.174c0 0-1.47-0.703-3.475-0.703-1.44 0-2.623 0.574-3.38 1.52s-1.1 2.213-1.1 3.6v1.28h-1.92v4.48h1.92v8.96h-10.24c-1.068 0-1.92-0.852-1.92-1.92v-20.48c0-1.068 0.852-1.92 1.92-1.92zM20.48 9.6c1.331 0 2.168 0.293 2.56 0.449v1.471h-0.64c-0.736 0-1.327 0.061-1.824 0.384s-0.736 0.936-0.736 1.536v2.56h3.059l-0.384 1.92h-2.675v10.24h-2.56v-10.24h-1.92v-1.92h1.92v-2.56c0-1.173 0.297-2.146 0.82-2.8s1.26-1.040 2.38-1.040z"></path>
</symbol>
<symbol id="icon-left" viewBox="0 0 32 32">
<path fill="none" stroke="#224f34" stroke-width="3.7647" stroke-miterlimit="4" stroke-linecap="round" stroke-linejoin="miter" style="stroke: var(--color3, #224f34)" d="M21.781 1.882l-13.31 13.31"></path>
<path fill="none" stroke="#224f34" stroke-width="3.7647" stroke-miterlimit="4" stroke-linecap="round" stroke-linejoin="miter" style="stroke: var(--color3, #224f34)" d="M21.781 28.369l-13.31-13.31"></path>
</symbol>
<symbol id="icon-right" viewBox="0 0 32 32">
<path fill="none" stroke="#224f34" stroke-width="3.7647" stroke-miterlimit="4" stroke-linecap="round" stroke-linejoin="miter" style="stroke: var(--color3, #224f34)" d="M8.471 1.882l13.31 13.31"></path>
<path fill="none" stroke="#224f34" stroke-width="3.7647" stroke-miterlimit="4" stroke-linecap="round" stroke-linejoin="miter" style="stroke: var(--color3, #224f34)" d="M8.471 28.369l13.31-13.31"></path>
</symbol>
<symbol id="icon-star" viewBox="0 0 32 32">
<path fill="#f5d426" style="fill: var(--color4, #f5d426)" d="M25.956 31.087l-9.956-7.317-9.956 7.317 3.823-11.817-9.951-7.271h12.285l3.799-11.837 3.799 11.837h12.284l-9.949 7.271 3.823 11.817z"></path>
</symbol>
<symbol id="icon-ellipse" viewBox="0 0 32 32">
<path fill="#10ff70" style="fill: var(--color5, #10ff70)" d="M20.571 13.714c0 3.156-2.558 5.714-5.714 5.714s-5.714-2.558-5.714-5.714c0-3.156 2.558-5.714 5.714-5.714s5.714 2.558 5.714 5.714z"></path>
</symbol>
<symbol id="icon-rivo" viewBox="0 0 98 32">
<path fill="#224f34" style="fill: var(--color3, #224f34)" d="M15.659 15.829v9.984l0.085 1.963c0.085 0.91 0.313 1.564 0.683 1.963s0.996 0.654 1.877 0.768l2.176 0.171v0.683h-20.48v-0.683h1.323c0.626-0.085 1.223-0.156 1.792-0.213 0.569-0.085 1.010-0.299 1.323-0.64 0.341-0.37 0.555-1.010 0.64-1.92l0.085-1.963v-20.224l-0.085-1.963c-0.085-0.91-0.299-1.55-0.64-1.92s-0.825-0.597-1.451-0.683c-0.626-0.085-1.166-0.128-1.621-0.128-0.455-0.028-0.882-0.057-1.28-0.085v-0.683l19.072-0.043c2.645 0 4.793 0.114 6.443 0.341s2.987 0.683 4.011 1.365c1.052 0.683 1.877 1.536 2.475 2.56 0.626 0.996 0.939 2.162 0.939 3.499 0 0.996-0.185 1.991-0.555 2.987-0.341 0.996-0.882 1.849-1.621 2.56s-1.664 1.266-2.773 1.664c-1.081 0.398-2.816 0.597-5.205 0.597v0.299c1.451 0.313 2.66 0.612 3.627 0.896 0.996 0.284 1.892 0.697 2.688 1.237s1.508 1.351 2.133 2.432c0.654 1.052 1.18 2.219 1.579 3.499 0.398 1.252 0.754 2.148 1.067 2.688 0.313 0.512 0.754 0.768 1.323 0.768 0.74 0 1.223-0.469 1.451-1.408 0.256-0.967 0.384-2.062 0.384-3.285h0.683c0 1.394-0.085 2.503-0.256 3.328s-0.597 1.692-1.28 2.603c-0.683 0.882-1.664 1.607-2.944 2.176-1.252 0.54-2.617 0.811-4.096 0.811-2.304 0-4.153-0.654-5.547-1.963-1.365-1.337-2.219-3.072-2.56-5.205-0.313-2.162-0.569-3.982-0.768-5.461-0.313-1.65-0.725-2.603-1.237-2.859-0.512-0.284-1.067-0.441-1.664-0.469s-1.195-0.043-1.792-0.043zM19.072 14.933c1.081-0.171 1.892-0.953 2.432-2.347 0.569-1.394 0.853-2.944 0.853-4.651 0-1.394-0.284-2.759-0.853-4.096-0.569-1.365-1.252-2.162-2.048-2.389s-1.508-0.356-2.133-0.384c-0.626-0.028-1.18-0.057-1.664-0.085v14.080h1.451c0.796 0 1.451-0.043 1.963-0.128zM52.058 31.36h-13.824v-0.683l1.024-0.043c0.825-0.085 1.323-0.284 1.493-0.597s0.256-0.996 0.256-2.048l0.043-1.963v-10.197l-0.043-1.749c-0.057-0.683-0.142-1.195-0.256-1.536s-0.626-0.555-1.536-0.64l-1.152-0.085v-0.683h11.179v14.891l0.043 1.963c0 1.024 0.085 1.707 0.256 2.048 0.171 0.313 0.668 0.512 1.493 0.597l1.024 0.043v0.683zM40.965 4.011c0-1.109 0.398-2.048 1.195-2.816 0.825-0.796 1.806-1.195 2.944-1.195 1.166 0 2.148 0.384 2.944 1.152 0.825 0.74 1.237 1.692 1.237 2.859 0 1.138-0.412 2.105-1.237 2.901-0.796 0.768-1.778 1.152-2.944 1.152-1.138 0-2.119-0.384-2.944-1.152-0.796-0.796-1.195-1.764-1.195-2.901zM65.705 11.819c-0.171 0-0.341 0.014-0.512 0.043-0.171 0-0.484 0.043-0.939 0.128-0.427 0.057-0.64 0.384-0.64 0.981 0 0.313 0.028 0.583 0.085 0.811s0.156 0.512 0.299 0.853l3.243 8.619 3.029-7.851c0.341-0.996 0.512-1.778 0.512-2.347 0-0.398-0.1-0.668-0.299-0.811s-0.512-0.256-0.939-0.341l-1.365-0.085v-0.683h7.125v0.683l-1.579 0.171c-0.455 0.085-0.868 0.356-1.237 0.811-0.37 0.427-0.754 1.152-1.152 2.176-0.398 0.996-1.18 2.987-2.347 5.973-1.138 2.987-2.005 5.262-2.603 6.827s-1.067 2.816-1.408 3.755h-3.029c-0.484-1.223-1.081-2.759-1.792-4.608-0.711-1.877-1.607-4.196-2.688-6.955-1.081-2.788-1.82-4.665-2.219-5.632s-0.697-1.579-0.896-1.835c-0.171-0.284-0.441-0.455-0.811-0.512-0.37-0.085-0.711-0.128-1.024-0.128-0.313-0.028-0.54-0.043-0.683-0.043v-0.683h13.867v0.683zM97.614 21.248c0 3.015-1.152 5.532-3.456 7.552-2.276 1.991-4.964 2.987-8.064 2.987-3.271 0-6.016-0.996-8.235-2.987-2.19-2.020-3.285-4.537-3.285-7.552s1.109-5.518 3.328-7.509c2.247-2.020 4.978-3.029 8.192-3.029 3.157 0 5.86 0.996 8.107 2.987 2.276 1.991 3.413 4.508 3.413 7.552zM89.124 21.205c0-0.398-0.028-1.195-0.085-2.389s-0.085-1.906-0.085-2.133c0-1.536-0.242-2.802-0.725-3.797-0.455-0.996-1.18-1.493-2.176-1.493-0.91 0-1.607 0.526-2.091 1.579-0.484 1.024-0.725 2.261-0.725 3.712 0 0.54-0.028 1.209-0.085 2.005-0.028 0.768-0.057 1.607-0.085 2.517 0 0.398 0.028 1.223 0.085 2.475 0.057 1.223 0.085 1.934 0.085 2.133 0 1.536 0.228 2.802 0.683 3.797 0.484 0.996 1.209 1.493 2.176 1.493 0.939 0 1.65-0.512 2.133-1.536s0.725-2.276 0.725-3.755c0-0.569 0.014-1.237 0.043-2.005 0.028-0.796 0.071-1.664 0.128-2.603z"></path>
</symbol>
<symbol id="icon-shopping-bag" viewBox="0 0 32 32">
<path fill="#224f34" style="fill: var(--color3, #224f34)" d="M28 8h-4c0-2.122-0.843-4.157-2.343-5.657s-3.535-2.343-5.657-2.343c-2.122 0-4.157 0.843-5.657 2.343s-2.343 3.535-2.343 5.657h-4c-1.061 0-2.078 0.421-2.828 1.172s-1.172 1.768-1.172 2.828v13.333c0.002 1.767 0.705 3.462 1.955 4.712s2.944 1.953 4.712 1.955h12c0.354 0 0.693-0.14 0.943-0.39s0.39-0.589 0.39-0.943c0-0.354-0.14-0.693-0.39-0.943s-0.589-0.39-0.943-0.39h-12c-1.061 0-2.078-0.421-2.828-1.172s-1.172-1.768-1.172-2.828v-13.333c0-0.354 0.14-0.693 0.391-0.943s0.589-0.39 0.943-0.39h4v2.667c0 0.354 0.14 0.693 0.391 0.943s0.589 0.39 0.943 0.39c0.354 0 0.693-0.14 0.943-0.39s0.391-0.589 0.391-0.943v-2.667h10.667v2.667c0 0.354 0.14 0.693 0.39 0.943s0.589 0.39 0.943 0.39c0.354 0 0.693-0.14 0.943-0.39s0.39-0.589 0.39-0.943v-2.667h4c0.354 0 0.693 0.14 0.943 0.39s0.39 0.589 0.39 0.943v6.667c0 0.354 0.14 0.693 0.39 0.943s0.589 0.39 0.943 0.39c0.354 0 0.693-0.14 0.943-0.39s0.39-0.589 0.39-0.943v-6.667c0-1.061-0.421-2.078-1.172-2.828s-1.768-1.172-2.828-1.172zM10.667 8c0-1.415 0.562-2.771 1.562-3.771s2.357-1.562 3.771-1.562 2.771 0.562 3.771 1.562c1 1 1.562 2.357 1.562 3.771h-10.667z"></path>
</symbol>
<symbol id="icon-untitled" viewBox="0 0 41 32">
<path fill="#224f34" style="fill: var(--color3, #224f34)" d="M8.646 15.573h0.729c1.979 0 3.75 0.764 5.313 2.292 1.597 1.493 2.396 3.368 2.396 5.625 0 2.222-0.799 4.062-2.396 5.521-1.563 1.423-3.507 2.135-5.833 2.135-2.535 0-4.653-1.007-6.354-3.021-1.667-2.049-2.5-4.948-2.5-8.698 0-3.437 0.729-6.649 2.188-9.635 1.493-3.021 3.299-5.399 5.417-7.135 2.153-1.771 4.063-2.656 5.729-2.656 1.111 0 1.979 0.33 2.604 0.99s0.938 1.51 0.938 2.552c0 1.528-0.677 2.656-2.031 3.385-1.84 1.007-3.299 2.188-4.375 3.542s-1.684 3.056-1.823 5.104zM31.667 15.573h0.677c1.944 0 3.698 0.764 5.26 2.292 1.597 1.493 2.396 3.368 2.396 5.625 0 2.188-0.799 4.028-2.396 5.521-1.563 1.493-3.507 2.239-5.833 2.239-2.569 0-4.687-1.042-6.354-3.125s-2.5-4.983-2.5-8.698c0-2.674 0.434-5.191 1.302-7.552s1.979-4.41 3.333-6.146c1.389-1.771 2.865-3.16 4.427-4.167 1.597-1.042 3.021-1.563 4.271-1.563 1.146 0 2.014 0.33 2.604 0.99 0.625 0.625 0.937 1.476 0.937 2.552 0 1.563-0.677 2.691-2.031 3.385-1.91 1.076-3.351 2.274-4.323 3.594-0.972 1.285-1.563 2.969-1.771 5.052z"></path>
</symbol>
<symbol id="icon-search" viewBox="0 0 32 32">
<path d="M31.008 27.231l-7.58-6.447c-0.784-0.705-1.622-1.029-2.299-0.998 1.789-2.096 2.87-4.815 2.87-7.787 0-6.627-5.373-12-12-12s-12 5.373-12 12 5.373 12 12 12c2.972 0 5.691-1.081 7.787-2.87-0.031 0.677 0.293 1.515 0.998 2.299l6.447 7.58c1.104 1.226 2.907 1.33 4.007 0.23s0.997-2.903-0.23-4.007zM12 20c-4.418 0-8-3.582-8-8s3.582-8 8-8 8 3.582 8 8-3.582 8-8 8z"></path>
</symbol>
<symbol id="icon-menu3" viewBox="0 0 44 32">
<path d="M0 6h28v6h-28v-6zM0 14h28v6h-28v-6zM0 22h28v6h-28v-6z"></path>
<path d="M31 14l6 6 6-6z"></path>
</symbol>
<symbol id="icon-menu4" viewBox="0 0 44 32">
<path d="M0 6h28v6h-28v-6zM0 14h28v6h-28v-6zM0 22h28v6h-28v-6z"></path>
<path d="M31 20l6-6 6 6z"></path>
</symbol>
<symbol id="icon-arrow-right2" viewBox="0 0 32 32">
<path d="M19.414 27.414l10-10c0.781-0.781 0.781-2.047 0-2.828l-10-10c-0.781-0.781-2.047-0.781-2.828 0s-0.781 2.047 0 2.828l6.586 6.586h-19.172c-1.105 0-2 0.895-2 2s0.895 2 2 2h19.172l-6.586 6.586c-0.39 0.39-0.586 0.902-0.586 1.414s0.195 1.024 0.586 1.414c0.781 0.781 2.047 0.781 2.828 0z"></path>
</symbol>
</defs>
</svg>
